<svg width="24" height="24" viewBox="0 0 24 24" fill="none" xmlns="http://www.w3.org/2000/svg">
<path fill-rule="evenodd" clip-rule="evenodd" d="M8.27735 6.58399L8.42604 6.68311C9.50168 6.24597 10.7155 6 12 6C13.2845 6 14.4983 6.24597 15.574 6.68311L15.7227 6.58399L18.3998 4.79921C18.8942 4.46965 19.5351 4.9213 19.391 5.49769L18.5683 8.78833C19.1429 9.45838 19.5662 10.2205 19.798 11.042L20.7764 10.5528C21.0234 10.4293 21.3237 10.5294 21.4472 10.7764C21.5707 11.0234 21.4706 11.3237 21.2236 11.4472L19.9826 12.0677C19.9941 12.2106 20 12.3547 20 12.5C20 13.6465 19.6347 14.7237 18.9934 15.6589L21.1857 16.5358C21.4421 16.6383 21.5668 16.9293 21.4642 17.1857C21.3617 17.4421 21.0707 17.5668 20.8143 17.4642L18.3332 16.4718C16.8701 18.0097 14.5774 19 12 19C9.4226 19 7.12987 18.0097 5.66677 16.4718L3.1857 17.4642C2.92931 17.5668 2.63832 17.4421 2.53576 17.1857C2.43321 16.9293 2.55792 16.6383 2.81431 16.5358L5.00658 15.6589C4.36533 14.7237 4 13.6465 4 12.5C4 12.3547 4.00586 12.2106 4.01741 12.0677L2.7764 11.4472C2.52941 11.3237 2.42929 11.0234 2.55279 10.7764C2.67628 10.5294 2.97662 10.4293 3.22361 10.5528L4.20204 11.042C4.43376 10.2205 4.85706 9.45838 5.43169 8.78832L4.60903 5.49769C4.46494 4.9213 5.10585 4.46965 5.60018 4.79921L8.27735 6.58399ZM18.0312 15.274L16.1857 14.5358C15.9293 14.4332 15.6383 14.5579 15.5358 14.8143C15.4332 15.0707 15.5579 15.3617 15.8143 15.4642L17.3179 16.0657C16.0668 17.2268 14.1999 18 12 18C9.80009 18 7.93325 17.2268 6.68214 16.0657L8.1857 15.4642C8.44209 15.3617 8.5668 15.0707 8.46424 14.8143C8.36168 14.5579 8.0707 14.4332 7.81431 14.5358L5.96875 15.274C5.35976 14.457 5.01407 13.5208 5.00042 12.5592L7.7764 13.9472C8.02339 14.0707 8.32372 13.9706 8.44722 13.7236C8.57071 13.4766 8.4706 13.1763 8.22361 13.0528L5.11984 11.5009C5.70854 9.05783 8.41102 7 12 7C15.589 7 18.2915 9.05783 18.8802 11.5009L15.7764 13.0528C15.5294 13.1763 15.4293 13.4766 15.5528 13.7236C15.6763 13.9706 15.9766 14.0707 16.2236 13.9472L18.9996 12.5592C18.9859 13.5208 18.6402 14.457 18.0312 15.274ZM17.7413 7.97342C17.3971 7.68528 17.0203 7.42297 16.6158 7.1904L18.2013 6.13343L17.7413 7.97342ZM7.38419 7.1904C6.97969 7.42297 6.60293 7.68528 6.25874 7.97342L5.79875 6.13343L7.38419 7.1904ZM9 12C9.55228 12 10 11.5523 10 11C10 10.4477 9.55228 10 9 10C8.44772 10 8 10.4477 8 11C8 11.5523 8.44772 12 9 12ZM16 11C16 11.5523 15.5523 12 15 12C14.4477 12 14 11.5523 14 11C14 10.4477 14.4477 10 15 10C15.5523 10 16 10.4477 16 11ZM10.5 13.5C10.2239 13.5 10 13.7239 10 14C10 14.2761 10.2239 14.5 10.5 14.5H11.4109C11.3023 14.7704 11.0982 14.9707 10.8197 15.1254C10.3616 15.3799 9.70787 15.5 9 15.5C8.72386 15.5 8.5 15.7239 8.5 16C8.5 16.2761 8.72386 16.5 9 16.5C9.79213 16.5 10.6384 16.3701 11.3053 15.9996C11.5715 15.8517 11.8086 15.6648 12 15.437C12.1914 15.6648 12.4285 15.8517 12.6947 15.9996C13.3616 16.3701 14.2079 16.5 15 16.5C15.2761 16.5 15.5 16.2761 15.5 16C15.5 15.7239 15.2761 15.5 15 15.5C14.2921 15.5 13.6384 15.3799 13.1803 15.1254C12.9018 14.9707 12.6977 14.7704 12.5891 14.5H13.5C13.7761 14.5 14 14.2761 14 14C14 13.7239 13.7761 13.5 13.5 13.5H12H10.5Z" fill="black"/>
</svg>
