<svg width="24" height="24" viewBox="0 0 24 24" fill="none" xmlns="http://www.w3.org/2000/svg">
<path fill-rule="evenodd" clip-rule="evenodd" d="M14 6C14 7.10457 13.1046 8 12 8C10.8954 8 10 7.10457 10 6C10 4.89543 10.8954 4 12 4C13.1046 4 14 4.89543 14 6ZM15 6C15 7.65685 13.6569 9 12 9C10.3431 9 9 7.65685 9 6C9 4.34315 10.3431 3 12 3C13.6569 3 15 4.34315 15 6ZM12 10.5C8.18076 10.5 6.04708 12.457 4.88765 14.5959C3.74613 16.7018 3.54492 18.9794 3.50835 19.7287C3.48674 20.1714 3.84607 20.5 4.25 20.5H19.75C20.1539 20.5 20.5133 20.1714 20.4917 19.7287C20.4551 18.9794 20.2539 16.7018 19.1123 14.5959C17.9529 12.457 15.8192 10.5 12 10.5ZM18.2332 15.0725C19.1547 16.7725 19.4069 18.6229 19.4751 19.5H4.52488C4.5931 18.6229 4.8453 16.7724 5.7668 15.0725C6.78376 13.1964 8.61091 11.5 12 11.5C15.3891 11.5 17.2162 13.1964 18.2332 15.0725Z" fill="black"/>
</svg>
