<svg width="24" height="24" viewBox="0 0 24 24" fill="none" xmlns="http://www.w3.org/2000/svg">
<path fill-rule="evenodd" clip-rule="evenodd" d="M14.5 2.5C14.5 2.22386 14.2761 2 14 2C13.7239 2 13.5 2.22386 13.5 2.5V5.31152C13.4243 5.33868 13.3505 5.37925 13.2815 5.43449L11.9985 6.46089L9.69663 5.54015C9.66284 5.52568 9.62714 5.51483 9.59 5.50808C9.5348 5.49792 9.47928 5.49736 9.42553 5.50551C9.34905 5.51693 9.27822 5.54567 9.21717 5.58762C9.16015 5.62665 9.11076 5.67779 9.07334 5.73917C9.04242 5.78964 9.02021 5.84601 9.00878 5.90621C9.00204 5.94129 8.99919 5.97652 9 6.01136V8.85968L8.78148 9.03449C8.60357 9.17682 8.5 9.39231 8.5 9.62015V12.0658L6.66603 10.8431C6.16761 10.5108 5.5 10.8681 5.5 11.4671V19.5H3C2.72386 19.5 2.5 19.7239 2.5 20C2.5 20.2761 2.72386 20.5 3 20.5H5.99631L6 20.5L6.00369 20.5H17.9986L18 20.5L18.0014 20.5H21C21.2761 20.5 21.5 20.2761 21.5 20C21.5 19.7239 21.2761 19.5 21 19.5H18.5V8.60356C18.5 7.93538 17.6921 7.60075 17.2197 8.07322L14.5 10.7929V6.02015L14.4999 6.0089L14.5 6V2.5ZM10 6.73853V8.05968L11.101 7.17891L10 6.73853ZM13.5 6.5403V11.9995V12.0005V19.5H9.5V13.0078V12.9932V9.7403L13.5 6.5403ZM14.5 19.5V12.2071L17.5 9.20711V19.5H14.5ZM8.5 13.2676L6.5 11.9343V19.5H8.5V13.2676ZM10.5 10C10.7761 10 11 10.2239 11 10.5V11.5C11 11.7761 10.7761 12 10.5 12C10.2239 12 10 11.7761 10 11.5V10.5C10 10.2239 10.2239 10 10.5 10ZM13 9C13 8.72386 12.7761 8.5 12.5 8.5C12.2239 8.5 12 8.72386 12 9V10C12 10.2761 12.2239 10.5 12.5 10.5C12.7761 10.5 13 10.2761 13 10V9ZM12.5 11.5C12.7761 11.5 13 11.7239 13 12V13C13 13.2761 12.7761 13.5 12.5 13.5C12.2239 13.5 12 13.2761 12 13V12C12 11.7239 12.2239 11.5 12.5 11.5ZM13 15C13 14.7239 12.7761 14.5 12.5 14.5C12.2239 14.5 12 14.7239 12 15V16C12 16.2761 12.2239 16.5 12.5 16.5C12.7761 16.5 13 16.2761 13 16V15ZM10.5 13C10.7761 13 11 13.2239 11 13.5V14.5C11 14.7761 10.7761 15 10.5 15C10.2239 15 10 14.7761 10 14.5V13.5C10 13.2239 10.2239 13 10.5 13ZM11 16.5C11 16.2239 10.7761 16 10.5 16C10.2239 16 10 16.2239 10 16.5V17.5C10 17.7761 10.2239 18 10.5 18C10.7761 18 11 17.7761 11 17.5V16.5Z" fill="black"/>
</svg>
