<svg width="24" height="24" viewBox="0 0 24 24" fill="none" xmlns="http://www.w3.org/2000/svg">
<path fill-rule="evenodd" clip-rule="evenodd" d="M20 6H4V14.2929L6.54722 11.7457C6.78919 11.5037 7.17733 11.4908 7.43486 11.7161L10.96 14.8006L15.5242 9.78006C15.7739 9.50545 16.2024 9.49525 16.4648 9.75767L20 13.2929V6ZM4 18V15.7071L7.02279 12.6843L10.56 15.7794C10.8265 16.0126 11.2307 15.9895 11.469 15.7274L16.0172 10.7243L20 14.7071V18H4ZM4 5C3.44772 5 3 5.44772 3 6V18C3 18.5523 3.44772 19 4 19H20C20.5523 19 21 18.5523 21 18V6C21 5.44772 20.5523 5 20 5H4ZM12 9C12 9.55228 11.5523 10 11 10C10.4477 10 10 9.55228 10 9C10 8.44772 10.4477 8 11 8C11.5523 8 12 8.44772 12 9ZM13 9C13 10.1046 12.1046 11 11 11C9.89543 11 9 10.1046 9 9C9 7.89543 9.89543 7 11 7C12.1046 7 13 7.89543 13 9Z" fill="black"/>
</svg>
